<svg id="Capa_1" data-name="Capa 1" xmlns="http://www.w3.org/2000/svg" viewBox="0 0 290.71 230.79"><defs><style>.cls-1{fill:#68a6c4;}.cls-2{fill:#5193af;}.cls-3{fill:#966393;}.cls-4{fill:#32abe1;}.cls-5{fill:#6ab8e7;}</style></defs><title>main_logo</title><path class="cls-1" d="M136.19,140.44c-4.07-5.91-6.85-12.07-6.27-18.87a32.07,32.07,0,0,1,8.53-19.33A70.63,70.63,0,0,1,153.12,91.5c10.19-5.83,17.52-14.74,17.8-22.73,0-4.58-3-9-8.74-10.74,4.32,4.12,7.37,8.49,5.54,13.86q-2.41,7.52-11.58,14c-5.27,3.92-12.88,8.45-18.18,12.92-5.26,4.89-8.89,13-10.13,20.39C127.09,125.15,130.09,135,136.19,140.44Z" transform="translate(-4.2 -6.96)"/><path class="cls-1" d="M154.46,114.18a132.47,132.47,0,0,0,3.46-18.32,54.58,54.58,0,0,0-.36-14.17,6.38,6.38,0,0,0-2.25-4,21.17,21.17,0,0,1,.08,12.77,43.06,43.06,0,0,0-1.73,9.65C153.39,106.84,153.62,111.69,154.46,114.18Z" transform="translate(-4.2 -6.96)"/><ellipse class="cls-1" cx="138.24" cy="40.93" rx="5.66" ry="8.02"/><path class="cls-1" d="M158.94,18c2.13,2.92,3.1,6.69,3.16,11.13a29.16,29.16,0,0,1-2.86,11.3,55.37,55.37,0,0,0-5.51,22.13c0,2.42-.52,2.63-1.32,1.47-1.57-2.68-2.59-6.59-1.34-12.51a49.94,49.94,0,0,1,5-11.68C159.63,33.36,161.21,26.25,158.94,18Z" transform="translate(-4.2 -6.96)"/><path class="cls-2" d="M112.8,100.2s.88-4.4,6.06-9.5,5-5.22,5.56-6a42.37,42.37,0,0,0,4.76-9.39c1.52-4.55,1.08-4.46,2-6.33s2.31-3.85,3.69-4.6,3.4-1.36,6.5.21c1.57.78,4,4.86,4,4.86s3.24,6.11,3.18,10.44-.59,6.77-1.82,9.49S143.69,95.81,144,101a52.22,52.22,0,0,0,4.48,17.28c2.61,6,10,24.15,11.92,31.64,0,0,2,7.46,2.21,8.54,0,0-9.94-22.41-12.17-25.46,0,0-1.84,5.83-3.42,10.75s-3.78,11.41-4.44,13.17a13.54,13.54,0,0,1-1.09,2.41s.13-5,.52-7.77,2-6.32,2.57-8.34,2.91-10,3.08-11.74.32-6.18-.93-8.58a76.33,76.33,0,0,1-5.42-13.67c-1.49-5.49-2.15-12.69-.79-16S143.68,87,144.42,85a15.7,15.7,0,0,0-4.36-15.84c-1-.87-2.88-2-4.3.35s-3.15,7.6-5.22,10.81-4,6.47-6.38,8.41A83.93,83.93,0,0,0,117,95.11C115.39,96.87,113.62,99.12,112.8,100.2Z" transform="translate(-4.2 -6.96)"/><path class="cls-1" d="M198.71,61.26c0-30-24.73-54.3-55.25-54.3S88.21,31.27,88.21,61.26c0,22.66,14.49,43.36,35.6,50.78.27.11.77-.68.16-1-19-8.16-33.09-27-32.9-48.42.25-29.45,23.27-53.33,52.47-53.33s52.88,23.87,52.88,53.32c0,20.4-10.77,35.39-28.7,46.46-.45.27-2.33,1.18-3.23,1.64-.45.23-.11.92.24.74C185.09,103.7,198.71,83.09,198.71,61.26Z" transform="translate(-4.2 -6.96)"/><path class="cls-3" d="M96,172c42.65-10.34,70.41-9.05,114.88,1.4C166.29,156.26,127.72,157.67,96,172Z" transform="translate(-4.2 -6.96)"/><circle class="cls-4" cx="253.26" cy="170.73" r="2.44"/><path class="cls-4" d="M76,188v26.7c0,1.72,3.61,1.72,3.61,0V197.23c0-10.4,20.25-10.46,20.28-.06v17.28c0,1.81,3.92,1.81,3.92,0V199.58c0-3.52-1.13-13.78-13.8-13.79,0,0-6.06-.15-9.51,3.45,0,0-.81.68-.86-.48V188A1.82,1.82,0,0,0,76,188Z" transform="translate(-4.2 -6.96)"/><path class="cls-4" d="M168.46,189.28c-14.07,0-14.07,24.11,0,24.11a12.76,12.76,0,0,0,8.7-2.85c1.14-1.14,3.22.94,2.08,2.08a14.82,14.82,0,0,1-25-11.28c.21-8.31,5.72-15.11,14.05-15.35a13.49,13.49,0,0,1,11.51,5.38c1.36,1.5-1.08,3.72-2.44,2.22A11.16,11.16,0,0,0,168.46,189.28Z" transform="translate(-4.2 -6.96)"/><path class="cls-4" d="M227.65,187.79c0-1.93,3.53-1.93,3.53,0v1.77c0,.51.74.49,1.22,0,3.1-3,7.12-4.48,11.46-2.89a1.52,1.52,0,0,1-.57,2.9c-7.4-.76-12.06,2.37-12.08,7.93v16.88a1.78,1.78,0,0,1-3.56,0Z" transform="translate(-4.2 -6.96)"/><path class="cls-4" d="M255.73,187.6c0-1.66,3.51-1.66,3.51,0v26.72a1.76,1.76,0,0,1-3.51,0Z" transform="translate(-4.2 -6.96)"/><path class="cls-4" d="M291.05,193.09c1.36,1.35,3.71-1,2.36-2.37-3-3.24-5.44-4.82-10.12-4.82-5.62.18-10.82,2.73-10.82,8.46,0,4.15,4.48,7.31,9.59,8,4.48.57,9.36,1.54,9.44,5.53,0,3.27-3.2,5.33-7.79,5.29-4.16,0-7.24-1.23-9.5-3.45a1.57,1.57,0,1,0-2.1,2.33c2.88,3.07,6.51,4.51,11.77,4.62,5.19-.18,11-3.51,11-8.81-.09-4.33-3.59-7.31-9.07-8.1-5.68-.81-9.81-1.58-9.86-5.62-.11-2.84,2.81-4.86,7.26-4.92C286.44,189.18,288.69,190.31,291.05,193.09Z" transform="translate(-4.2 -6.96)"/><path class="cls-4" d="M4.2,175.36a2,2,0,0,1,2.23-1.85c2.14,0,11.11,0,11.11,0,14.42,0,17.23,20.3,4.22,25.08a.79.79,0,0,0-.19,1.18c.47.81,8.78,14.15,8.78,14.15,1,1.56-1.58,3.21-2.68,1.94L17.53,199.93s-.31-.74-2.42-.71-6.1,0-6.1,0-1.21.12-1.22,1.12,0,13.37,0,13.37c0,3.25-3.5,3.26-3.5,0ZM7.73,178V195.3c0,.49.41.7,1.21.7h8.12c12.48,0,12.48-18.88,0-18.88H8.65A.82.82,0,0,0,7.73,178Z" transform="translate(-4.2 -6.96)"/><path class="cls-4" d="M64.14,202.44s-21.37,0-21.75.13-.33.64-.33.64c1.73,10.13,11.68,12.5,19.31,7.09,1.08-.92,3.31,1.11,1.83,2.41-3.52,3.23-9.45,3.6-9.45,3.6s-15.32.73-15.32-15.12S52.63,186,52.63,186c7-.13,13.44,5.95,13.58,13.46C66.26,201.29,65.5,202.22,64.14,202.44Zm-21.3-2.95H62.13c.38,0,.58-.3.58-.82,0-5.7-4.64-9.46-10.39-9.46-6,0-10.12,5.14-10.12,9.1C42.2,199,42.39,199.49,42.84,199.49Z" transform="translate(-4.2 -6.96)"/><path class="cls-4" d="M212.39,210.39a1.57,1.57,0,0,1,2.09,2.34c-10.41,8-24.7,2.21-24.7-11.46-.1-8.45,5-15.19,14.23-15.19,7.93,0,13.12,5.56,13.5,13.47,0,2.69-.88,2.88-3.32,2.88H194.37c-.8.13-1,.7-.86,1.74C195.42,212.76,205.06,215.81,212.39,210.39ZM194,199.49h19.28c.39,0,.59-.3.59-.82,0-5.7-4.64-9.46-10.39-9.46-6,0-10.12,5.14-10.12,9.1C193.39,199,193.58,199.49,194,199.49Z" transform="translate(-4.2 -6.96)"/><path class="cls-4" d="M114.05,201.48c0-20.9,30.8-20.9,30.8,0V214c0,2.85-3.6,2.85-3.6,0l0-2.58C130.09,222,114.43,214.28,114.05,201.48Zm15.41-12.12a11.9,11.9,0,1,0,11.9,11.9A11.9,11.9,0,0,0,129.46,189.36Z" transform="translate(-4.2 -6.96)"/><path class="cls-5" d="M48.32,229c.85.85,1.71,0,.86-.87a3,3,0,0,0-4.63,0c-1.26,1.49-.3,3.26,1.8,4.38s3,1.49,2.26,2.93a2.13,2.13,0,0,1-3.2.29.75.75,0,1,0-1,1.06c1.79,1.53,5.58,1.38,6-2,.09-1.15-.78-2.38-2.64-3.2-1.6-.75-2.6-1.46-2-2.61A1.72,1.72,0,0,1,48.32,229Z" transform="translate(-4.2 -6.96)"/><path class="cls-5" d="M75.51,228.08a.72.72,0,1,1,1.44,0v7.57c0,.51.37.64.82.64H79c.66,0,.66,1.2,0,1.2H76.13c-.38,0-.63-.3-.62-1Z" transform="translate(-4.2 -6.96)"/><path class="cls-5" d="M90.36,228.08a.75.75,0,0,1,1.49,0v7.29c0,1.19,2.07,1.19,2.07,0v-7.28a.71.71,0,1,1,1.42,0v8.17c0,2-5,2-5,0Z" transform="translate(-4.2 -6.96)"/><path class="cls-5" d="M136.83,236.6a.73.73,0,1,0,1.46,0v-4.83l2-3.65c.45-.89-.66-1.45-1.11-.56l-1.6,2.62-1.77-2.54a.65.65,0,1,0-1,.75l2.09,3.38Z" transform="translate(-4.2 -6.96)"/><path class="cls-5" d="M178.62,228.3v8.43c0,.43.44.82,1.4.82h2.58a.62.62,0,0,0,0-1.24H180.4c-.29,0-.37-.24-.37-.73l0-2.85a.66.66,0,0,1,.59-.67h2.13c.75,0,.75-1.31,0-1.31h-2.42c-.27,0-.38-.28-.37-.71v-1.18c0-.54.39-.46.94-.46h1.73a.58.58,0,0,0,0-1.16h-3.39C178.86,227.25,178.62,227.55,178.62,228.3Z" transform="translate(-4.2 -6.96)"/><path class="cls-5" d="M219.65,228.32v8.44c0,.42.44.82,1.4.82h2.58a.63.63,0,0,0,0-1.25h-2.22c-.28,0-.37-.24-.37-.73l0-2.85a.67.67,0,0,1,.59-.67h2.13c.75,0,.75-1.31,0-1.31H221.4c-.28,0-.39-.28-.38-.71v-1.18c0-.53.4-.45.94-.46h1.74a.58.58,0,0,0,0-1.16h-3.4C219.9,227.28,219.65,227.58,219.65,228.32Z" transform="translate(-4.2 -6.96)"/><path class="cls-5" d="M192.52,228.31c0-1.31,1.29-1.31,1.29,0V236c0,.27.28.34.67.33h1.7a.59.59,0,0,1,0,1.17h-3a.84.84,0,0,1-.71-.88Z" transform="translate(-4.2 -6.96)"/><path class="cls-5" d="M205.93,228.31c0-1.31,1.28-1.31,1.28,0V236c0,.27.29.34.68.33h1.7a.59.59,0,0,1,0,1.17h-3a.84.84,0,0,1-.71-.88Z" transform="translate(-4.2 -6.96)"/><path class="cls-5" d="M234.35,228.38c-1,0-1-1.12,0-1.12h4c.62,0,.82.53.5,1.12l-3.16,7.34c-.13.32,0,.57.32.57h2.59a.6.6,0,1,1,0,1.18h-4.38c-.42,0-.74-.45-.4-1.18l3.3-7.13c.16-.38,0-.79-.39-.79Z" transform="translate(-4.2 -6.96)"/><path class="cls-5" d="M108.45,227.08a5.38,5.38,0,0,1,.06,10.39c-1.18.27-2.36.13-2.36-.61v-8.92C106.2,227.21,107.21,226.75,108.45,227.08Zm-1,1.69v7.15c0,.15.11.22.3.22,2,0,3.4-1.72,3.4-3.85a3.71,3.71,0,0,0-3.27-3.75C107.61,228.54,107.42,228.61,107.42,228.77Z" transform="translate(-4.2 -6.96)"/><path class="cls-5" d="M62.35,228.48c.22-.78,1-.76,1.24,0l2.63,8.08c.3.84-.77,1.24-1.19.42l-.81-1.65H61.88L61,237a.62.62,0,1,1-1.08-.59Zm-.11,5.42h1.6l-.78-2.55Z" transform="translate(-4.2 -6.96)"/><path class="cls-5" d="M251.21,228.48c.22-.78,1-.76,1.24,0l2.63,8.08c.3.84-.76,1.24-1.18.42l-1-1.65h-2l-1,1.71a.62.62,0,1,1-1.07-.59Zm-.08,5.42h1.61l-.85-2.55Z" transform="translate(-4.2 -6.96)"/><path class="cls-5" d="M167.77,232c1.32-2.24.45-4.72-1.71-4.72h-2.7c-.6.09-.8.54-.79,1.16v8.28c0,.56.57.74,1.38.75h2.64C169.16,237.4,169.91,233.63,167.77,232Zm-3.93-3c0-.3.07-.53.32-.53h1.78c1.65,0,1.65,3.16,0,3.16h-1.78c-.32,0-.32-.25-.32-.61Zm2.49,7.22h-2.12c-.37,0-.37-.25-.37-.63v-2.11c0-.32.08-.56.38-.56h2.11C168.08,232.91,168.28,236.28,166.33,236.21Z" transform="translate(-4.2 -6.96)"/></svg>