<svg id="Capa_1" data-name="Capa 1" xmlns="http://www.w3.org/2000/svg" viewBox="0 0 290.71 64.26"><defs><style>.cls-1{fill:#32abe1;}.cls-2{fill:#6ab8e7;}</style></defs><title>short-logo</title><circle class="cls-1" cx="253.26" cy="4.19" r="2.44"/><path class="cls-1" d="M76,21.54v26.7c0,1.72,3.61,1.72,3.61,0V30.76c0-10.39,20.25-10.45,20.28-.05V48c0,1.81,3.92,1.81,3.92,0V33.11c0-3.52-1.13-13.78-13.8-13.78,0,0-6.06-.16-9.51,3.44,0,0-.81.68-.86-.48v-.72A1.82,1.82,0,0,0,76,21.54Z" transform="translate(-4.2 -7.03)"/><path class="cls-1" d="M168.46,22.82c-14.07,0-14.07,24.11,0,24.11a12.82,12.82,0,0,0,8.7-2.86c1.14-1.14,3.22.94,2.08,2.08a14.82,14.82,0,0,1-25-11.28c.21-8.3,5.72-15.11,14.05-15.35a13.49,13.49,0,0,1,11.51,5.38c1.36,1.5-1.08,3.72-2.44,2.22A11.14,11.14,0,0,0,168.46,22.82Z" transform="translate(-4.2 -7.03)"/><path class="cls-1" d="M227.65,21.32c0-1.93,3.53-1.93,3.53,0v1.77c0,.51.74.49,1.22,0,3.1-3,7.12-4.48,11.46-2.89a1.52,1.52,0,0,1-.57,2.9c-7.4-.76-12.06,2.37-12.08,7.93V47.91a1.78,1.78,0,0,1-3.56,0Z" transform="translate(-4.2 -7.03)"/><path class="cls-1" d="M255.73,21.13c0-1.66,3.51-1.66,3.51,0V47.85a1.76,1.76,0,0,1-3.51,0Z" transform="translate(-4.2 -7.03)"/><path class="cls-1" d="M291.05,26.62c1.36,1.35,3.71-1,2.36-2.37-3-3.23-5.44-4.82-10.12-4.81-5.62.17-10.82,2.72-10.82,8.45,0,4.15,4.48,7.31,9.59,8,4.48.57,9.36,1.54,9.44,5.53,0,3.28-3.2,5.33-7.79,5.3-4.16,0-7.24-1.24-9.5-3.46a1.57,1.57,0,1,0-2.1,2.33c2.88,3.07,6.51,4.51,11.77,4.62,5.19-.17,11-3.51,11-8.81-.09-4.32-3.59-7.31-9.07-8.1-5.68-.81-9.81-1.57-9.86-5.62-.11-2.83,2.81-4.85,7.26-4.92C286.44,22.71,288.69,23.84,291.05,26.62Z" transform="translate(-4.2 -7.03)"/><path class="cls-1" d="M4.2,8.9A2,2,0,0,1,6.43,7C8.57,7,17.54,7,17.54,7,32,7,34.77,27.34,21.76,32.13a.78.78,0,0,0-.19,1.17c.47.81,8.78,14.15,8.78,14.15,1,1.56-1.58,3.21-2.68,1.95L17.53,33.46s-.31-.74-2.42-.71-6.1,0-6.1,0-1.21.12-1.22,1.12,0,13.37,0,13.37c0,3.25-3.5,3.27-3.5,0Zm3.53,2.59V28.83c0,.5.41.71,1.21.71h8.12c12.48,0,12.48-18.89,0-18.89H8.65A.83.83,0,0,0,7.73,11.49Z" transform="translate(-4.2 -7.03)"/><path class="cls-1" d="M64.14,36s-21.37,0-21.75.13-.33.64-.33.64c1.73,10.13,11.68,12.5,19.31,7.09,1.08-.92,3.31,1.11,1.83,2.41-3.52,3.23-9.45,3.6-9.45,3.6s-15.32.73-15.32-15.12S52.63,19.5,52.63,19.5c7-.13,13.44,5.95,13.58,13.46C66.26,34.82,65.5,35.75,64.14,36ZM42.84,33H62.13c.38,0,.58-.31.58-.83,0-5.69-4.64-9.46-10.39-9.46-6,0-10.12,5.14-10.12,9.1C42.2,32.49,42.39,33,42.84,33Z" transform="translate(-4.2 -7.03)"/><path class="cls-1" d="M212.39,43.92a1.57,1.57,0,0,1,2.09,2.35c-10.41,8-24.7,2.21-24.7-11.47-.1-8.45,5-15.19,14.23-15.19,7.93,0,13.12,5.56,13.5,13.47,0,2.69-.88,2.88-3.32,2.88H194.37c-.8.13-1,.7-.86,1.74C195.42,46.29,205.06,49.34,212.39,43.92ZM194,33h19.28c.39,0,.59-.31.59-.83,0-5.69-4.64-9.46-10.39-9.46-6,0-10.12,5.14-10.12,9.1C193.39,32.49,193.58,33,194,33Z" transform="translate(-4.2 -7.03)"/><path class="cls-1" d="M114.05,35c0-20.9,30.8-20.9,30.8,0V47.54c0,2.85-3.6,2.85-3.6,0l0-2.58C130.09,55.56,114.43,47.81,114.05,35Zm15.41-12.12a11.9,11.9,0,1,0,11.9,11.9A11.9,11.9,0,0,0,129.46,22.89Z" transform="translate(-4.2 -7.03)"/><path class="cls-2" d="M48.32,62.5c.85.85,1.71,0,.86-.86a3,3,0,0,0-4.63,0c-1.26,1.48-.3,3.25,1.8,4.38s3,1.48,2.26,2.92a2.13,2.13,0,0,1-3.2.29.75.75,0,1,0-1,1.06c1.79,1.53,5.58,1.38,6-2,.09-1.14-.78-2.38-2.64-3.2-1.6-.75-2.6-1.46-2-2.61A1.72,1.72,0,0,1,48.32,62.5Z" transform="translate(-4.2 -7.03)"/><path class="cls-2" d="M75.51,61.61a.72.72,0,1,1,1.44,0v7.57c0,.52.37.64.82.65H79c.66,0,.66,1.19,0,1.19H76.13c-.38,0-.63-.3-.62-1Z" transform="translate(-4.2 -7.03)"/><path class="cls-2" d="M90.36,61.61a.75.75,0,0,1,1.49,0V68.9c0,1.19,2.07,1.19,2.07,0V61.62a.71.71,0,1,1,1.42,0v8.17c0,2-5,2-5,0Z" transform="translate(-4.2 -7.03)"/><path class="cls-2" d="M136.83,70.13a.73.73,0,1,0,1.46,0V65.3l2-3.65c.45-.89-.66-1.45-1.11-.56l-1.6,2.62-1.77-2.53a.64.64,0,1,0-1,.74l2.09,3.38Z" transform="translate(-4.2 -7.03)"/><path class="cls-2" d="M178.62,61.83v8.44c0,.42.44.82,1.4.82h2.58a.63.63,0,0,0,0-1.25H180.4c-.29,0-.37-.24-.37-.73l0-2.85a.67.67,0,0,1,.59-.67h2.13c.75,0,.75-1.31,0-1.31h-2.42c-.27,0-.38-.28-.37-.71V62.39c0-.53.39-.46.94-.46h1.73a.58.58,0,0,0,0-1.16h-3.39C178.86,60.78,178.62,61.09,178.62,61.83Z" transform="translate(-4.2 -7.03)"/><path class="cls-2" d="M219.65,61.86v8.43c0,.43.44.82,1.4.82h2.58a.63.63,0,0,0,0-1.25h-2.22c-.28,0-.37-.24-.37-.72l0-2.86a.66.66,0,0,1,.59-.66h2.13c.75,0,.75-1.32,0-1.32H221.4c-.28,0-.39-.28-.38-.71V62.41c0-.53.4-.45.94-.46h1.74a.58.58,0,0,0,0-1.16h-3.4C219.9,60.81,219.65,61.11,219.65,61.86Z" transform="translate(-4.2 -7.03)"/><path class="cls-2" d="M192.52,61.84c0-1.31,1.29-1.31,1.29,0V69.5c0,.27.28.34.67.33h1.7a.59.59,0,0,1,0,1.17h-3a.84.84,0,0,1-.71-.88Z" transform="translate(-4.2 -7.03)"/><path class="cls-2" d="M205.93,61.84c0-1.31,1.28-1.31,1.28,0V69.5c0,.27.29.34.68.33h1.7a.59.59,0,0,1,0,1.17h-3a.84.84,0,0,1-.71-.88Z" transform="translate(-4.2 -7.03)"/><path class="cls-2" d="M234.35,61.91c-1,0-1-1.12,0-1.12h4c.62,0,.82.53.5,1.12l-3.16,7.34c-.13.32,0,.58.32.58h2.59a.59.59,0,1,1,0,1.17h-4.38c-.42,0-.74-.45-.4-1.17l3.3-7.14c.16-.38,0-.79-.39-.79Z" transform="translate(-4.2 -7.03)"/><path class="cls-2" d="M108.45,60.61A5.38,5.38,0,0,1,108.51,71c-1.18.27-2.36.13-2.36-.61V61.48C106.2,60.74,107.21,60.28,108.45,60.61Zm-1,1.7v7.14c0,.15.11.22.3.22,2,0,3.4-1.72,3.4-3.85a3.71,3.71,0,0,0-3.27-3.75C107.61,62.07,107.42,62.14,107.42,62.31Z" transform="translate(-4.2 -7.03)"/><path class="cls-2" d="M62.35,62c.22-.78,1-.75,1.24,0l2.63,8.08c.3.84-.77,1.24-1.19.42l-.81-1.65H61.88L61,70.57A.62.62,0,1,1,60,70Zm-.11,5.42h1.6l-.78-2.54Z" transform="translate(-4.2 -7.03)"/><path class="cls-2" d="M251.21,62c.22-.78,1-.75,1.24,0l2.63,8.08c.3.84-.76,1.24-1.18.42l-1-1.65h-2l-1,1.71a.62.62,0,1,1-1.07-.59Zm-.08,5.42h1.61l-.85-2.54Z" transform="translate(-4.2 -7.03)"/><path class="cls-2" d="M167.77,65.52c1.32-2.24.45-4.72-1.71-4.72h-2.7c-.6.09-.8.54-.79,1.17v8.27c0,.57.57.74,1.38.75h2.64C169.16,70.94,169.91,67.16,167.77,65.52Zm-3.93-3c0-.31.07-.54.32-.54h1.78c1.65,0,1.65,3.16,0,3.16h-1.78c-.32,0-.32-.25-.32-.6Zm2.49,7.22h-2.12c-.37,0-.37-.26-.37-.64V67c0-.32.08-.56.38-.56h2.11C168.08,66.44,168.28,69.82,166.33,69.75Z" transform="translate(-4.2 -7.03)"/></svg>