<svg xmlns="http://www.w3.org/2000/svg" xmlns:xlink="http://www.w3.org/1999/xlink" viewBox="0 0 265.64 151.08"><defs><style>.cls-1{isolation:isolate;}.cls-2{fill:url(#Degradado_sin_nombre_37);}.cls-3{fill:url(#Degradado_sin_nombre_37-2);}.cls-4{fill:url(#Degradado_sin_nombre_37-3);}.cls-5{fill:url(#Degradado_sin_nombre_37-4);}.cls-6{fill:url(#Degradado_sin_nombre_37-5);}.cls-7{fill:url(#Degradado_sin_nombre_37-6);}.cls-8{fill:url(#Degradado_sin_nombre_37-7);}.cls-9{fill:url(#Degradado_sin_nombre_37-8);}.cls-10{fill:url(#Degradado_sin_nombre_37-9);}.cls-11{fill:url(#Degradado_sin_nombre_37-10);}.cls-12{fill:url(#Degradado_sin_nombre_37-11);}.cls-13{fill:url(#Degradado_sin_nombre_37-12);}.cls-14{fill:url(#Degradado_sin_nombre_33);}.cls-15{fill:url(#Degradado_sin_nombre_33-2);}.cls-16{fill:url(#Degradado_sin_nombre_33-3);}.cls-17{fill:url(#Degradado_sin_nombre_33-4);}.cls-18{fill:url(#Degradado_sin_nombre_33-5);}.cls-19{fill:url(#Degradado_sin_nombre_33-6);}.cls-20{fill:url(#Degradado_sin_nombre_33-7);}.cls-21{fill:url(#Degradado_sin_nombre_33-8);}.cls-22{fill:url(#Degradado_sin_nombre_33-9);}.cls-23{fill:url(#Degradado_sin_nombre_33-10);}.cls-24{fill:url(#Degradado_sin_nombre_33-11);}.cls-25{fill:url(#Degradado_sin_nombre_33-12);}.cls-26{fill:url(#Degradado_sin_nombre_24);}.cls-27{mix-blend-mode:soft-light;}.cls-28{fill:#fff;}.cls-29{fill:url(#Degradado_sin_nombre_29);}.cls-30{fill:url(#Degradado_sin_nombre_31);}.cls-31{fill:url(#Degradado_sin_nombre_31-2);}.cls-32{fill:url(#Degradado_sin_nombre_31-3);}.cls-33{fill:url(#Degradado_sin_nombre_31-4);}.cls-34{fill:url(#Degradado_sin_nombre_31-5);}.cls-35{fill:url(#Degradado_sin_nombre_31-6);}.cls-36{fill:url(#Degradado_sin_nombre_31-7);}.cls-37{fill:url(#Degradado_sin_nombre_31-8);}.cls-38{fill:url(#Degradado_sin_nombre_31-9);}.cls-39{fill:url(#Degradado_sin_nombre_31-10);}.cls-40{fill:url(#Degradado_sin_nombre_31-11);}.cls-41{fill:url(#Degradado_sin_nombre_31-12);}.cls-42,.cls-43{fill:url(#Degradado_sin_nombre_16);}.cls-43,.cls-46{mix-blend-mode:multiply;}.cls-44{fill:url(#Degradado_sin_nombre_16-3);}.cls-45{fill:url(#Degradado_sin_nombre_16-4);}.cls-46{fill:url(#Degradado_sin_nombre_5);}.cls-47{fill:url(#Degradado_sin_nombre_5-2);}</style><linearGradient id="Degradado_sin_nombre_37" x1="6253.34" y1="4278.11" x2="6289.4" y2="4384.86" gradientTransform="matrix(-0.9, -0.44, -0.44, 0.9, 8256.46, -611.95)" gradientUnits="userSpaceOnUse"><stop offset="0" stop-color="#67a6c3"/><stop offset="0.5" stop-color="#67a6c3"/></linearGradient><linearGradient id="Degradado_sin_nombre_37-2" x1="6248.79" y1="4279.64" x2="6284.87" y2="4386.46" xlink:href="#Degradado_sin_nombre_37"/><linearGradient id="Degradado_sin_nombre_37-3" x1="6256.89" y1="4276.94" x2="6292.94" y2="4383.65" xlink:href="#Degradado_sin_nombre_37"/><linearGradient id="Degradado_sin_nombre_37-4" x1="6252.51" y1="4278.34" x2="6288.62" y2="4385.24" xlink:href="#Degradado_sin_nombre_37"/><linearGradient id="Degradado_sin_nombre_37-5" x1="6260.9" y1="4275.63" x2="6296.92" y2="4382.28" xlink:href="#Degradado_sin_nombre_37"/><linearGradient id="Degradado_sin_nombre_37-6" x1="6260.92" y1="4275.64" x2="6296.94" y2="4382.28" xlink:href="#Degradado_sin_nombre_37"/><linearGradient id="Degradado_sin_nombre_37-7" x1="6261.09" y1="4275.62" x2="6297.1" y2="4382.22" xlink:href="#Degradado_sin_nombre_37"/><linearGradient id="Degradado_sin_nombre_37-8" x1="6251.08" y1="4278.84" x2="6287.18" y2="4385.73" xlink:href="#Degradado_sin_nombre_37"/><linearGradient id="Degradado_sin_nombre_37-9" x1="6259.63" y1="4276.04" x2="6295.66" y2="4382.7" xlink:href="#Degradado_sin_nombre_37"/><linearGradient id="Degradado_sin_nombre_37-10" x1="6253.29" y1="4278.08" x2="6289.39" y2="4384.95" xlink:href="#Degradado_sin_nombre_37"/><linearGradient id="Degradado_sin_nombre_37-11" x1="6253.14" y1="4278.12" x2="6289.24" y2="4384.99" xlink:href="#Degradado_sin_nombre_37"/><linearGradient id="Degradado_sin_nombre_37-12" x1="6252.32" y1="4278.41" x2="6288.4" y2="4385.24" xlink:href="#Degradado_sin_nombre_37"/><linearGradient id="Degradado_sin_nombre_33" x1="12152.97" y1="9548.81" x2="12200.95" y2="9690.85" gradientTransform="matrix(0.78, -0.63, 0.63, 0.78, -14948.42, 721.89)" gradientUnits="userSpaceOnUse"><stop offset="0" stop-color="#67a6c3"/><stop offset="1" stop-color="#cce1ff"/></linearGradient><linearGradient id="Degradado_sin_nombre_33-2" x1="12146.92" y1="9550.84" x2="12194.93" y2="9692.98" xlink:href="#Degradado_sin_nombre_33"/><linearGradient id="Degradado_sin_nombre_33-3" x1="12157.7" y1="9547.24" x2="12205.66" y2="9689.24" xlink:href="#Degradado_sin_nombre_33"/><linearGradient id="Degradado_sin_nombre_33-4" x1="12151.87" y1="9549.11" x2="12199.91" y2="9691.37" xlink:href="#Degradado_sin_nombre_33"/><linearGradient id="Degradado_sin_nombre_33-5" x1="12163.03" y1="9545.51" x2="12210.96" y2="9687.42" xlink:href="#Degradado_sin_nombre_33"/><linearGradient id="Degradado_sin_nombre_33-6" x1="12163.06" y1="9545.52" x2="12210.98" y2="9687.42" xlink:href="#Degradado_sin_nombre_33"/><linearGradient id="Degradado_sin_nombre_33-7" x1="12163.29" y1="9545.49" x2="12211.2" y2="9687.35" xlink:href="#Degradado_sin_nombre_33"/><linearGradient id="Degradado_sin_nombre_33-8" x1="12149.96" y1="9549.78" x2="12198" y2="9692.01" xlink:href="#Degradado_sin_nombre_33"/><linearGradient id="Degradado_sin_nombre_33-9" x1="12161.34" y1="9546.05" x2="12209.28" y2="9687.98" xlink:href="#Degradado_sin_nombre_33"/><linearGradient id="Degradado_sin_nombre_33-10" x1="12152.91" y1="9548.77" x2="12200.94" y2="9690.98" xlink:href="#Degradado_sin_nombre_33"/><linearGradient id="Degradado_sin_nombre_33-11" x1="12152.71" y1="9548.82" x2="12200.74" y2="9691.03" xlink:href="#Degradado_sin_nombre_33"/><linearGradient id="Degradado_sin_nombre_33-12" x1="12151.61" y1="9549.2" x2="12199.62" y2="9691.37" xlink:href="#Degradado_sin_nombre_33"/><linearGradient id="Degradado_sin_nombre_24" x1="699.65" y1="551.17" x2="776.52" y2="489.62" gradientTransform="translate(-72.47 99.57) rotate(-6.32)" gradientUnits="userSpaceOnUse"><stop offset="0" stop-color="#956292"/><stop offset="0.5" stop-color="#954c92"/><stop offset="0.57" stop-color="#9f5a99"/><stop offset="0.72" stop-color="#bb7eac"/><stop offset="0.9" stop-color="#e6b8cb"/><stop offset="1" stop-color="#fed8dc"/></linearGradient><linearGradient id="Degradado_sin_nombre_29" x1="-3559.15" y1="1008.49" x2="-3465.6" y2="1008.49" gradientTransform="matrix(-1, -0.06, -0.06, 1, -2875.72, -741.66)" gradientUnits="userSpaceOnUse"><stop offset="0" stop-color="#fed8dc"/><stop offset="0.1" stop-color="#f3c9d4"/><stop offset="0.28" stop-color="#d5a2bf"/><stop offset="0.53" stop-color="#a5649d"/><stop offset="0.6" stop-color="#954f92"/><stop offset="1" stop-color="#956292"/></linearGradient><linearGradient id="Degradado_sin_nombre_31" x1="-2495.12" y1="5393.63" x2="-2462.37" y2="5490.58" gradientTransform="translate(-3666.39 -3669.04) rotate(-69.71)" gradientUnits="userSpaceOnUse"><stop offset="0" stop-color="#f6a6be"/><stop offset="0.21" stop-color="#e79cb7"/><stop offset="0.61" stop-color="#c181a6"/><stop offset="1" stop-color="#956292"/></linearGradient><linearGradient id="Degradado_sin_nombre_31-2" x1="-2499.23" y1="5395.02" x2="-2466.48" y2="5491.97" xlink:href="#Degradado_sin_nombre_31"/><linearGradient id="Degradado_sin_nombre_31-3" x1="-2491.87" y1="5392.53" x2="-2459.12" y2="5489.48" xlink:href="#Degradado_sin_nombre_31"/><linearGradient id="Degradado_sin_nombre_31-4" x1="-2495.87" y1="5393.89" x2="-2463.13" y2="5490.83" xlink:href="#Degradado_sin_nombre_31"/><linearGradient id="Degradado_sin_nombre_31-5" x1="-2488.27" y1="5391.32" x2="-2455.52" y2="5488.27" xlink:href="#Degradado_sin_nombre_31"/><linearGradient id="Degradado_sin_nombre_31-6" x1="-2488.28" y1="5391.32" x2="-2455.53" y2="5488.27" xlink:href="#Degradado_sin_nombre_31"/><linearGradient id="Degradado_sin_nombre_31-7" x1="-2488.15" y1="5391.27" x2="-2455.41" y2="5488.23" xlink:href="#Degradado_sin_nombre_31"/><linearGradient id="Degradado_sin_nombre_31-8" x1="-2497.17" y1="5394.32" x2="-2464.42" y2="5491.27" xlink:href="#Degradado_sin_nombre_31"/><linearGradient id="Degradado_sin_nombre_31-9" x1="-2489.4" y1="5391.7" x2="-2456.66" y2="5488.65" xlink:href="#Degradado_sin_nombre_31"/><linearGradient id="Degradado_sin_nombre_31-10" x1="-2495.18" y1="5393.65" x2="-2462.44" y2="5490.6" xlink:href="#Degradado_sin_nombre_31"/><linearGradient id="Degradado_sin_nombre_31-11" x1="-2495.33" y1="5393.7" x2="-2462.58" y2="5490.65" xlink:href="#Degradado_sin_nombre_31"/><linearGradient id="Degradado_sin_nombre_31-12" x1="-2496.11" y1="5393.96" x2="-2463.36" y2="5490.91" xlink:href="#Degradado_sin_nombre_31"/><linearGradient id="Degradado_sin_nombre_16" x1="585.13" y1="521.95" x2="709.69" y2="521.95" gradientUnits="userSpaceOnUse"><stop offset="0" stop-color="#67a6c3"/><stop offset="1" stop-color="#2fabe1"/></linearGradient><linearGradient id="Degradado_sin_nombre_16-3" x1="589.91" y1="521.95" x2="704.9" y2="521.95" xlink:href="#Degradado_sin_nombre_16"/><linearGradient id="Degradado_sin_nombre_16-4" x1="591.12" y1="521.95" x2="703.7" y2="521.95" xlink:href="#Degradado_sin_nombre_16"/><linearGradient id="Degradado_sin_nombre_5" x1="624.71" y1="509.61" x2="670.11" y2="509.61" gradientUnits="userSpaceOnUse"><stop offset="0" stop-color="#67a6c3"/><stop offset="1" stop-color="#c0e1ff"/></linearGradient><linearGradient id="Degradado_sin_nombre_5-2" x1="627.22" y1="509.61" x2="667.59" y2="509.61" xlink:href="#Degradado_sin_nombre_5"/></defs><title>lock</title><g class="cls-1"><g id="Capa_1" data-name="Capa 1"><path class="cls-2" d="M751.62,479.84a.34.34,0,0,0-.45-.17,125,125,0,0,0-20.1,11.48,129.2,129.2,0,0,0-32.45,32.73q-2,2.93-3.85,6h0a4.58,4.58,0,0,1,.71.12,128.24,128.24,0,0,1,56-49.68A.33.33,0,0,0,751.62,479.84Z" transform="translate(-505.94 -438.46)"/><path class="cls-3" d="M757.6,480.26a3.32,3.32,0,0,0,.59-4.13,3.23,3.23,0,0,0-2.87-1.12c-5.5.44-12.55,9.25-12.55,9.24C748.75,483,755.07,482.88,757.6,480.26Z" transform="translate(-505.94 -438.46)"/><path class="cls-4" d="M741.74,481.44a2.81,2.81,0,0,0-1.32-3.27,2.78,2.78,0,0,0-2.6.39c-3.85,2.64-5.3,12.06-5.3,12.06C736.39,487.18,741,484.43,741.74,481.44Z" transform="translate(-505.94 -438.46)"/><path class="cls-5" d="M734.38,498.25a2.46,2.46,0,0,0,1.67-2.57,2.37,2.37,0,0,0-1.56-1.62c-3.77-1.39-10.83,3-10.83,3C728,498.05,731.89,499.21,734.38,498.25Z" transform="translate(-505.94 -438.46)"/><path class="cls-6" d="M722.73,492.26a2.84,2.84,0,0,0-2.2-2.81,2.8,2.8,0,0,0-2.41,1.1c-3,3.63-1.37,12.84-1.37,12.84C720.05,499.19,722.84,495.37,722.73,492.26Z" transform="translate(-505.94 -438.46)"/><path class="cls-7" d="M714.22,500.8a2.9,2.9,0,0,0-2.25-2.87,2.85,2.85,0,0,0-2.46,1.12c-3.08,3.71-.52,12.27-.52,12.27S714.33,504,714.22,500.8Z" transform="translate(-505.94 -438.46)"/><path class="cls-8" d="M706.19,507.48a3.14,3.14,0,0,0-5.92-1.44c-3.17,4.89,1.14,14.82,1.14,14.82S706.77,511.27,706.19,507.48Z" transform="translate(-505.94 -438.46)"/><path class="cls-9" d="M743,492a2.55,2.55,0,0,0,1.41-2.85,2.46,2.46,0,0,0-1.81-1.49c-4.08-1-11.27,3.73-11.27,3.73C735.92,491.91,740.51,493.32,743,492Z" transform="translate(-505.94 -438.46)"/><path class="cls-10" d="M731,488.94c1.65-3.49.21-5.41-1.27-5.68-.88-.16-4,.08-4.16,4.5-.28,6.34.25,7.81.25,7.79A19.66,19.66,0,0,0,731,488.94Z" transform="translate(-505.94 -438.46)"/><path class="cls-11" d="M724.4,504.91c3.8-.22,4.8-2.37,4.35-3.77-.27-.84-1.91-3.39-5.84-1.48a68.33,68.33,0,0,0-6.66,3.88A19.47,19.47,0,0,0,724.4,504.91Z" transform="translate(-505.94 -438.46)"/><path class="cls-12" d="M716.87,512.79c3.92-.23,5-2.44,4.48-3.88-.28-.86-2-3.49-6-1.52a70.82,70.82,0,0,0-6.85,4A19.85,19.85,0,0,0,716.87,512.79Z" transform="translate(-505.94 -438.46)"/><path class="cls-13" d="M710.17,520.83c4.13-.86,4.88-3.37,4.15-4.84-.44-.86-2.65-3.39-6.64-.65a74.79,74.79,0,0,0-6.66,5.33A21.41,21.41,0,0,0,710.17,520.83Z" transform="translate(-505.94 -438.46)"/><path class="cls-14" d="M515.83,502.23a.45.45,0,0,1,.53-.35,166.1,166.1,0,0,1,29.48,8.94,172.5,172.5,0,0,1,51.78,32.87q3.46,3.21,6.75,6.6h0a5.09,5.09,0,0,0-.88.36,170.66,170.66,0,0,0-87.29-47.9A.45.45,0,0,1,515.83,502.23Z" transform="translate(-505.94 -438.46)"/><path class="cls-15" d="M508.19,504.55c-1.69-1.11-2.8-3.35-2-5.19a4.32,4.32,0,0,1,3.4-2.3c7.26-1.05,19,8.29,19,8.28C520.49,505.48,512.26,507.2,508.19,504.55Z" transform="translate(-505.94 -438.46)"/><path class="cls-16" d="M529.12,501.39c-.77-1.53-.63-3.64.75-4.64a3.69,3.69,0,0,1,3.48-.26c5.79,2.28,10.44,14.08,10.44,14.08C537.77,507.25,531,505,529.12,501.39Z" transform="translate(-505.94 -438.46)"/><path class="cls-17" d="M543.65,521a3.28,3.28,0,0,1-2.93-2.84,3.17,3.17,0,0,1,1.54-2.57c4.48-2.92,14.94.68,14.94.68C551.86,518.87,547.16,521.53,543.65,521Z" transform="translate(-505.94 -438.46)"/><path class="cls-18" d="M557,509.81c-.33-1.7.4-3.71,2-4.3a3.74,3.74,0,0,1,3.46.71c5,3.82,5.56,16.26,5.56,16.26C562.52,518,557.77,513.87,557,509.81Z" transform="translate(-505.94 -438.46)"/><path class="cls-19" d="M570.55,518.36c-.33-1.73.41-3.78,2.07-4.39a3.82,3.82,0,0,1,3.53.73c5.09,3.9,4.3,15.77,4.3,15.77S571.35,522.51,570.55,518.36Z" transform="translate(-505.94 -438.46)"/><path class="cls-20" d="M583,524.65c-.16-2.12,1-4.49,3.11-5A4.64,4.64,0,0,1,590.2,521c5.55,5.41,2.9,19.56,2.9,19.56S583.31,529.75,583,524.65Z" transform="translate(-505.94 -438.46)"/><path class="cls-21" d="M530.66,515.48a3.38,3.38,0,0,1-2.67-3.29,3.28,3.28,0,0,1,1.91-2.47c5-2.47,15.72,1.52,15.72,1.52C539.77,513.25,534.23,516.44,530.66,515.48Z" transform="translate(-505.94 -438.46)"/><path class="cls-22" d="M545.34,507.93c-3.17-4.05-1.87-7,0-7.75,1.1-.46,5.18-1.07,6.73,4.61,2.23,8.14,2,10.2,2,10.18A26.15,26.15,0,0,1,545.34,507.93Z" transform="translate(-505.94 -438.46)"/><path class="cls-23" d="M558.57,526.7c-5,.84-6.94-1.64-6.76-3.6.1-1.17,1.47-5,7.13-3.65a88.74,88.74,0,0,1,9.79,3.07A25.69,25.69,0,0,1,558.57,526.7Z" transform="translate(-505.94 -438.46)"/><path class="cls-24" d="M570.65,534.7c-5.14.86-7.13-1.69-6.95-3.71.1-1.19,1.51-5.1,7.34-3.75a95.07,95.07,0,0,1,10.08,3.15A26.21,26.21,0,0,1,570.65,534.7Z" transform="translate(-505.94 -438.46)"/><path class="cls-25" d="M581.72,543.16c-5.61.1-7.32-2.94-6.8-5,.31-1.26,2.43-5.18,8.42-2.82a99,99,0,0,1,10.21,5A28.45,28.45,0,0,1,581.72,543.16Z" transform="translate(-505.94 -438.46)"/><path class="cls-26" d="M697.67,526.88a4.34,4.34,0,0,1-.23,3.4c4.68-3.94,12.47-10.11,17.47-10.07,4.83,0,5.8,4.28,4.82,6.57,6.5-6.12,15.32-10,19.46-9.79,4.75.25,6.25,4.71,4.08,6.65,12.92-7.63,25.27-9,27.81-4.82,3.33,5.51-10.62,15.8-24.63,14.69,4.09.43,7.95,3.23,7.45,6.47-.52,3.42-5.88,5.35-12.53,2.62,1.55,1.6,2,4.85-1.23,6.92-5.64,3.6-17.41.79-25-1.65,2.9,1.24,5.24,3.26,4.47,6.07-1.74,6.42-15.74,2.35-24.75-1.12a4,4,0,0,1,1.94,4.56c-2,7.4-21.68.23-28-1.75C674.38,531.78,693.88,518.71,697.67,526.88Z" transform="translate(-505.94 -438.46)"/><g class="cls-27"><path class="cls-28" d="M673.65,551.35a.37.37,0,0,1-.12-.68c17-10,30.29-12.6,45.69-15.62,12.57-2.46,26.83-5.25,45.26-12.82a.38.38,0,0,1,.48.21.37.37,0,0,1-.2.48c-18.5,7.6-32.79,10.39-45.4,12.86-15.33,3-28.58,5.59-45.45,15.52A.41.41,0,0,1,673.65,551.35Z" transform="translate(-505.94 -438.46)"/><path class="cls-28" d="M727.1,529.13a.37.37,0,0,1-.14-.67L738.11,521a.38.38,0,0,1,.51.1.37.37,0,0,1-.1.52l-11.14,7.49A.4.4,0,0,1,727.1,529.13Z" transform="translate(-505.94 -438.46)"/><path class="cls-28" d="M704,533.38a.36.36,0,0,1-.21-.13.37.37,0,0,1,0-.52,85.21,85.21,0,0,1,10.45-7.63.37.37,0,1,1,.39.63,83.72,83.72,0,0,0-10.36,7.56A.37.37,0,0,1,704,533.38Z" transform="translate(-505.94 -438.46)"/><path class="cls-28" d="M682.22,543.39l-.06,0a.36.36,0,0,1-.2-.48A33.86,33.86,0,0,1,691,530.15a.37.37,0,0,1,.49.56,33.12,33.12,0,0,0-8.87,12.46A.36.36,0,0,1,682.22,543.39Z" transform="translate(-505.94 -438.46)"/><path class="cls-28" d="M747.5,539.23l-12.45-3.29a.37.37,0,0,1-.27-.45.38.38,0,0,1,.46-.27l12.43,3.29a.38.38,0,0,1,.26.45A.37.37,0,0,1,747.5,539.23Z" transform="translate(-505.94 -438.46)"/><path class="cls-28" d="M735.11,545.29l-16.85-4.11a.38.38,0,0,1-.28-.45.37.37,0,0,1,.45-.27l16.84,4.11a.37.37,0,0,1,.27.45A.36.36,0,0,1,735.11,545.29Z" transform="translate(-505.94 -438.46)"/><path class="cls-28" d="M712.68,552.47l-.08,0c-4.06-1.83-8.1-3.85-12-6a.38.38,0,0,1-.15-.5.39.39,0,0,1,.51-.15c3.89,2.14,7.92,4.15,12,6a.36.36,0,0,1,.18.49A.37.37,0,0,1,712.68,552.47Z" transform="translate(-505.94 -438.46)"/><path class="cls-28" d="M690,556.41a.31.31,0,0,1-.13-.06,52.78,52.78,0,0,0-8.91-4.73.37.37,0,1,1,.29-.68,52.8,52.8,0,0,1,9,4.8.37.37,0,0,1-.28.67Z" transform="translate(-505.94 -438.46)"/></g><path class="cls-29" d="M521.1,441.85c.38-2.19,2.89-3.4,5.12-3.39,4,0,7.6,2.73,10.39,5.57a2.91,2.91,0,0,1,.1-2.28c3.32-6.53,18.34,4.06,22.53,10.5-.33-2.65,2.6-3.93,5.16-2.77,4.58,2.09,9.49,12.61,11.16,17.63a4.31,4.31,0,0,1,1.29-2.94c4.08-3.7,22.54,3.79,24.59,37.73a2.92,2.92,0,0,1,2.65-2.66c9.56-.81,5.73,26.32,2.45,40.1-7.16-4.75-34.94-26.32-32.84-34.62a5.24,5.24,0,0,1,4.11-3.82c-8.59-2.45-18.61-9.46-18.7-13.66,0-1.84,1.44-3.86,4.44-4.41-6.15-1-23-5.74-21.75-12.36.32-1.68,2-3.37,4.89-3.63-4.35-.84-12.08-3.24-14.29-7.09-2.11-3.67.36-7.91,5.15-7.21C526.37,450.75,520.33,446.2,521.1,441.85Z" transform="translate(-505.94 -438.46)"/><g class="cls-27"><path class="cls-28" d="M603.38,533.34a.37.37,0,0,1-.23-.24C593.05,499,567.31,466.57,536,448.39a.35.35,0,1,1,.35-.6A150.68,150.68,0,0,1,577.82,484a146.31,146.31,0,0,1,26,48.89.36.36,0,0,1-.24.44A.37.37,0,0,1,603.38,533.34Z" transform="translate(-505.94 -438.46)"/><path class="cls-28" d="M554.57,456.55a.32.32,0,0,1-.19-.15,35.11,35.11,0,0,0-7.24-8.56.35.35,0,0,1,0-.49.34.34,0,0,1,.49,0A35.89,35.89,0,0,1,555,456a.35.35,0,0,1-.12.48A.37.37,0,0,1,554.57,456.55Z" transform="translate(-505.94 -438.46)"/><path class="cls-28" d="M568.85,469.33a.32.32,0,0,1-.23-.26,29.39,29.39,0,0,0-4.38-10.26.35.35,0,0,1,.09-.49.36.36,0,0,1,.49.1,29.89,29.89,0,0,1,4.48,10.51.34.34,0,0,1-.27.41A.28.28,0,0,1,568.85,469.33Z" transform="translate(-505.94 -438.46)"/><path class="cls-28" d="M588.74,489.86a.34.34,0,0,1-.24-.3,32,32,0,0,0-6.16-16.19.36.36,0,0,1,.07-.49.35.35,0,0,1,.49.07,32.61,32.61,0,0,1,6.3,16.55.36.36,0,0,1-.32.38Z" transform="translate(-505.94 -438.46)"/><path class="cls-28" d="M554.35,474.11a31.55,31.55,0,0,1-3.81-1.53.36.36,0,0,1,.31-.64A31.67,31.67,0,0,0,564,475.07a.35.35,0,0,1,.35.35.36.36,0,0,1-.36.35A32.56,32.56,0,0,1,554.35,474.11Z" transform="translate(-505.94 -438.46)"/><path class="cls-28" d="M541.64,460.82a30.72,30.72,0,0,1-6-2.73.37.37,0,0,1-.12-.49.35.35,0,0,1,.48-.12,30.18,30.18,0,0,0,12.29,4.06.35.35,0,1,1-.07.69A30.44,30.44,0,0,1,541.64,460.82Z" transform="translate(-505.94 -438.46)"/><path class="cls-28" d="M574,493.26a23.6,23.6,0,0,1-5.29-2.53.35.35,0,0,1,.38-.59,22.58,22.58,0,0,0,10,3.49.35.35,0,0,1,.31.39.35.35,0,0,1-.38.31A23.05,23.05,0,0,1,574,493.26Z" transform="translate(-505.94 -438.46)"/><path class="cls-28" d="M602.59,517.66a.35.35,0,0,1-.23-.4,43.65,43.65,0,0,0,.77-10.76.35.35,0,0,1,.33-.37.35.35,0,0,1,.37.33,44.14,44.14,0,0,1-.78,10.94.36.36,0,0,1-.41.28Z" transform="translate(-505.94 -438.46)"/><path class="cls-28" d="M589,514.31a26.52,26.52,0,0,1-9.32-5.4.35.35,0,0,1,0-.49.34.34,0,0,1,.49,0,25.78,25.78,0,0,0,11.2,5.86.36.36,0,0,1,.26.42.35.35,0,0,1-.42.26C590.47,514.76,589.74,514.55,589,514.31Z" transform="translate(-505.94 -438.46)"/></g><path class="cls-30" d="M538.1,545.36a113.3,113.3,0,0,1,20.41-5,117.33,117.33,0,0,1,41.83,1.34c2.59.56,5.15,1.22,7.68,1.95-.14.18-.29.34-.43.52a116,116,0,0,0-69.29,1.77.31.31,0,0,1-.39-.19A.31.31,0,0,1,538.1,545.36Z" transform="translate(-505.94 -438.46)"/><path class="cls-31" d="M534.25,549.78a3,3,0,0,1-3-2.37,3,3,0,0,1,1.19-2.54c3.89-3.15,14-1.74,14-1.74C541.78,546,537.55,549.93,534.25,549.78Z" transform="translate(-505.94 -438.46)"/><path class="cls-32" d="M545.41,540.62a2.57,2.57,0,0,1-1.18-3,2.5,2.5,0,0,1,1.95-1.36c4.19-.67,11,4.66,11,4.66C552.52,541.06,547.78,542.13,545.41,540.62Z" transform="translate(-505.94 -438.46)"/><path class="cls-33" d="M560.78,547.14a2.23,2.23,0,0,1-2.7-.65,2.18,2.18,0,0,1,0-2.06c1.61-3.28,9-4.81,9-4.81C564.85,543,563,546.22,560.78,547.14Z" transform="translate(-505.94 -438.46)"/><path class="cls-34" d="M564.68,535.87a2.6,2.6,0,0,1-.31-3.24,2.53,2.53,0,0,1,2.27-.78c4.26.51,9,7.65,9,7.65C570.79,538.78,566.56,538,564.68,535.87Z" transform="translate(-505.94 -438.46)"/><path class="cls-35" d="M575.63,536.19a2.65,2.65,0,0,1-.32-3.31,2.6,2.6,0,0,1,2.32-.8c4.35.53,8,7.81,8,7.81S577.55,538.36,575.63,536.19Z" transform="translate(-505.94 -438.46)"/><path class="cls-36" d="M585.09,535.58a3.21,3.21,0,0,1,.09-4,3.11,3.11,0,0,1,2.9-.63c5.15,1.25,8.54,10.52,8.54,10.52S587.09,538.46,585.09,535.58Z" transform="translate(-505.94 -438.46)"/><path class="cls-37" d="M551.24,548.4a2.32,2.32,0,0,1-2.72-1,2.24,2.24,0,0,1,.26-2.12c2.06-3.21,9.74-4.59,9.74-4.59C555.8,543.91,553.66,547.72,551.24,548.4Z" transform="translate(-505.94 -438.46)"/><path class="cls-38" d="M557.2,538.83c-3.27-1.28-3.53-3.46-2.72-4.56.48-.66,2.66-2.44,5.55.37,4.15,4,4.73,5.32,4.72,5.31A17.68,17.68,0,0,1,557.2,538.83Z" transform="translate(-505.94 -438.46)"/><path class="cls-39" d="M571.51,545.29c-2.63,2.24-4.64,1.45-5.22.23-.34-.72-.87-3.44,2.91-4.64a61.21,61.21,0,0,1,6.81-1.6A17.3,17.3,0,0,1,571.51,545.29Z" transform="translate(-505.94 -438.46)"/><path class="cls-40" d="M581.4,545.8c-2.72,2.3-4.78,1.49-5.38.23-.35-.74-.89-3.53,3-4.77a65,65,0,0,1,7-1.65A18,18,0,0,1,581.4,545.8Z" transform="translate(-505.94 -438.46)"/><path class="cls-41" d="M590.84,546.93c-3.25,2-5.32.82-5.75-.61-.26-.85-.39-3.9,3.95-4.6a69.82,69.82,0,0,1,7.71-.64A19.23,19.23,0,0,1,590.84,546.93Z" transform="translate(-505.94 -438.46)"/><path class="cls-42" d="M647.37,589.54a13.24,13.24,0,0,1-8-2.67,133.42,133.42,0,0,1-40.57-48.55c-9.18-18.88-13.77-40.06-13.65-62.94a13.37,13.37,0,0,1,13.35-13.29,21.76,21.76,0,0,1,3.51.45,71.24,71.24,0,0,0,12.53,1.23,46.41,46.41,0,0,0,25.65-7.28,13.33,13.33,0,0,1,7.2-2.14h0a13.29,13.29,0,0,1,7.21,2.12,46.46,46.46,0,0,0,25.58,7.28,71.56,71.56,0,0,0,12.29-1.19,25.27,25.27,0,0,1,3.84-.46,13.35,13.35,0,0,1,13.34,13.28c.12,22.61-4.33,43.51-13.24,62.11-9.14,19.08-23,35.69-41,49.35a13.21,13.21,0,0,1-8,2.7Z" transform="translate(-505.94 -438.46)"/><path class="cls-43" d="M647.37,589.54a13.24,13.24,0,0,1-8-2.67,133.42,133.42,0,0,1-40.57-48.55c-9.18-18.88-13.77-40.06-13.65-62.94a13.37,13.37,0,0,1,13.35-13.29,21.76,21.76,0,0,1,3.51.45,71.24,71.24,0,0,0,12.53,1.23,46.41,46.41,0,0,0,25.65-7.28,13.33,13.33,0,0,1,7.2-2.14h0a13.29,13.29,0,0,1,7.21,2.12,46.46,46.46,0,0,0,25.58,7.28,71.56,71.56,0,0,0,12.29-1.19,25.27,25.27,0,0,1,3.84-.46,13.35,13.35,0,0,1,13.34,13.28c.12,22.61-4.33,43.51-13.24,62.11-9.14,19.08-23,35.69-41,49.35a13.21,13.21,0,0,1-8,2.7Z" transform="translate(-505.94 -438.46)"/><path class="cls-44" d="M647.38,584.58a10.15,10.15,0,0,1-6.14-2.05,126.21,126.21,0,0,1-38.4-45.93c-8.69-17.88-13-38-12.92-59.65a10.22,10.22,0,0,1,10.2-10.16,20.4,20.4,0,0,1,3,.4,73.14,73.14,0,0,0,12.55,1.22A47.51,47.51,0,0,0,641.87,461a10.27,10.27,0,0,1,5.51-1.64h0a10.16,10.16,0,0,1,5.51,1.62,47.55,47.55,0,0,0,26.17,7.46,72.5,72.5,0,0,0,12.32-1.18,23.2,23.2,0,0,1,3.27-.41A10.21,10.21,0,0,1,704.9,477c.11,21.44-4.1,41.24-12.54,58.84-8.64,18.05-21.71,33.77-38.84,46.72A10.13,10.13,0,0,1,647.38,584.58Z" transform="translate(-505.94 -438.46)"/><path class="cls-45" d="M647.38,583.38a9,9,0,0,1-5.42-1.81,125,125,0,0,1-38-45.5c-8.61-17.71-12.92-37.6-12.8-59.11a9,9,0,0,1,9-9,21.16,21.16,0,0,1,2.74.37,73,73,0,0,0,12.76,1.24,48.64,48.64,0,0,0,26.9-7.65,9.06,9.06,0,0,1,4.86-1.45h0a9,9,0,0,1,4.86,1.43,48.7,48.7,0,0,0,26.82,7.65,73.36,73.36,0,0,0,12.52-1.19,24,24,0,0,1,3.07-.4,9,9,0,0,1,9,9c.11,21.26-4.07,40.88-12.42,58.33-8.56,17.87-21.51,33.44-38.48,46.27A9,9,0,0,1,647.38,583.38Z" transform="translate(-505.94 -438.46)"/><path class="cls-46" d="M631.14,538.81a6.26,6.26,0,0,1-6.43-6.07v-12.9c0-13.22,0-13.4.14-13.78a6.34,6.34,0,0,1,5.65-4.77V496c0-8.6,7.59-15.59,16.91-15.59s16.9,7,16.9,15.59v5.29a6.25,6.25,0,0,1,5.72,5.08c0,.27.09.56.08,26.36a6.27,6.27,0,0,1-6.43,6.08Zm22.44-37.55c0-1.47,0-2.56,0-3.38a11.9,11.9,0,0,0-.12-2.92,6.4,6.4,0,0,0-12.12,0,11.17,11.17,0,0,0-.12,2.91c0,.82,0,1.92,0,3.39Z" transform="translate(-505.94 -438.46)"/><path class="cls-47" d="M667.55,506.79a3.81,3.81,0,0,0-3.87-3H661.8V496c0-7.28-6.53-13.08-14.39-13.08S633,488.73,633,496v7.77h-1.88a3.85,3.85,0,0,0-3.84,2.84c-.1.46-.08,26.11-.08,26.13a3.75,3.75,0,0,0,3.92,3.55h32.54a3.74,3.74,0,0,0,3.91-3.55S667.61,507.14,667.55,506.79Zm-16.61,22.42h-7.07a1.47,1.47,0,0,1-1.1-.48,1.24,1.24,0,0,1-.32-.78,1.53,1.53,0,0,1,0-.3l1.82-7.73a4.69,4.69,0,0,1-2.18-3.89,5.31,5.31,0,0,1,10.58,0,4.68,4.68,0,0,1-2.19,3.89l1.82,7.73,0,.15a1.24,1.24,0,0,1-.31.93A1.49,1.49,0,0,1,650.94,529.21Zm-12.22-25.44c0-7.72-.13-8,.17-9.36a8.9,8.9,0,0,1,17,0c.31,1.34.13,1.65.18,9.36Z" transform="translate(-505.94 -438.46)"/></g></g></svg>